<?xml version="1.0" encoding="iso-8859-1"?>
<!-- Generator: Adobe Illustrator 19.0.0, SVG Export Plug-In . SVG Version: 6.00 Build 0)  -->
<svg version="1.1" id="Capa_1" xmlns="http://www.w3.org/2000/svg" xmlns:xlink="http://www.w3.org/1999/xlink" x="0px" y="0px"
	 viewBox="0 0 512 512" style="enable-background:new 0 0 512 512;" xml:space="preserve">
<g>
	<path style="fill:#B6F068;" d="M378.5,167h-246c-8.284,0-15,6.716-15,15v212.78c0,8.284,6.716,15,15,15h19V467
		c0,24.813,20.187,45,45,45s45-20.187,45-45v-57.22h30V467c0,24.813,20.187,45,45,45s45-20.187,45-45v-57.22h17
		c8.284,0,15-6.716,15-15V182C393.5,173.716,386.784,167,378.5,167z"/>
	<path style="fill:#B6F068;" d="M57.5,167c-24.813,0-45,20.187-45,45v89c0,24.813,20.187,45,45,45s45-20.187,45-45v-89
		C102.5,187.187,82.313,167,57.5,167z"/>
	<path style="fill:#B6F068;" d="M390.107,4.394c-5.857-5.858-15.355-5.858-21.213,0l-26.491,26.491C318.66,11.586,288.41,0,255.5,0
		c-32.4,0-62.223,11.229-85.795,29.992L144.107,4.394c-5.857-5.858-15.355-5.858-21.213,0s-5.858,15.355,0,21.213l25.491,25.491
		C129.086,74.84,117.5,105.091,117.5,138c0,8.284,6.716,15,15,15h246c8.284,0,15-6.716,15-15c0-32.4-11.229-62.223-29.992-85.795
		l26.599-26.599C395.964,19.749,395.964,10.252,390.107,4.394z"/>
</g>
<g>
	<path style="fill:#6DE661;" d="M378.5,167H256v242.78h15.5V467c0,24.813,20.187,45,45,45s45-20.187,45-45v-57.22h17
		c8.284,0,15-6.716,15-15V182C393.5,173.716,386.784,167,378.5,167z"/>
	<path style="fill:#6DE661;" d="M454.5,167c-24.813,0-45,20.187-45,45v89c0,24.813,20.187,45,45,45s45-20.187,45-45v-89
		C499.5,187.187,479.313,167,454.5,167z"/>
	<path style="fill:#6DE661;" d="M390.107,25.607c5.858-5.858,5.858-15.355,0-21.213c-5.857-5.858-15.355-5.858-21.213,0
		l-26.491,26.491C318.781,11.684,288.716,0.123,256,0.006V153h122.5c8.284,0,15-6.716,15-15c0-32.4-11.229-62.223-29.992-85.795
		L390.107,25.607z"/>
</g>
<g>
</g>
<g>
</g>
<g>
</g>
<g>
</g>
<g>
</g>
<g>
</g>
<g>
</g>
<g>
</g>
<g>
</g>
<g>
</g>
<g>
</g>
<g>
</g>
<g>
</g>
<g>
</g>
<g>
</g>
</svg>
